<svg width="49" height="18" viewBox="0 0 49 18" fill="none" xmlns="http://www.w3.org/2000/svg">
<path d="M48 0L49 0V18H48V0Z" fill="#E1E8EE"/>
<path fill-rule="evenodd" clip-rule="evenodd" d="M31.6128 12.1964C31.6539 12.2397 31.6935 12.2813 31.731 12.3216C31.9185 12.5228 32.0016 12.7641 32 13C31.9969 13.5125 31.5944 14 30.9969 14H19.0031C18.4056 14 18.0035 13.5125 18 13C17.9985 12.7641 18.0816 12.5231 18.2691 12.3216C18.3066 12.2813 18.3461 12.2397 18.3873 12.1964C19.0088 11.543 20.0025 10.4983 20.0025 7.5C20.0025 5.07188 21.705 3.12812 24.0006 2.65125V2C24.0006 1.44781 24.4481 1 25 1C25.5519 1 25.9994 1.44781 25.9994 2V2.65125C28.295 3.12812 29.9975 5.07188 29.9975 7.5C29.9975 10.4983 30.9912 11.543 31.6128 12.1964ZM26.9991 15C26.9991 16.1047 26.1038 17 25 17C23.8963 17 23.001 16.1047 23.001 15H26.9991Z" fill="white" fill-opacity="0.01"/>
<mask id="mask0_1573_14337" style="mask-type:luminance" maskUnits="userSpaceOnUse" x="18" y="1" width="14" height="16">
<path fill-rule="evenodd" clip-rule="evenodd" d="M31.6128 12.1964C31.6539 12.2397 31.6935 12.2813 31.731 12.3216C31.9185 12.5228 32.0016 12.7641 32 13C31.9969 13.5125 31.5944 14 30.9969 14H19.0031C18.4056 14 18.0035 13.5125 18 13C17.9985 12.7641 18.0816 12.5231 18.2691 12.3216C18.3066 12.2813 18.3461 12.2397 18.3873 12.1964C19.0088 11.543 20.0025 10.4983 20.0025 7.5C20.0025 5.07188 21.705 3.12812 24.0006 2.65125V2C24.0006 1.44781 24.4481 1 25 1C25.5519 1 25.9994 1.44781 25.9994 2V2.65125C28.295 3.12812 29.9975 5.07188 29.9975 7.5C29.9975 10.4983 30.9912 11.543 31.6128 12.1964ZM26.9991 15C26.9991 16.1047 26.1038 17 25 17C23.8963 17 23.001 16.1047 23.001 15H26.9991Z" fill="white"/>
</mask>
<g mask="url(#mask0_1573_14337)">
<rect x="17" y="1" width="16" height="16" fill="#7F8FA4"/>
</g>
</svg>
