<svg width="16" height="16" viewBox="0 0 16 16" fill="none" xmlns="http://www.w3.org/2000/svg">
<path fill-rule="evenodd" clip-rule="evenodd" d="M7.65024 10.6167L3.64488 6.61136C3.45171 6.41818 3.45171 6.105 3.64488 5.91184L4.11204 5.44468C4.30489 5.25184 4.61743 5.25146 4.81073 5.44386L8.00001 8.61819L11.1893 5.44386C11.3826 5.25146 11.6951 5.25184 11.888 5.44468L12.3551 5.91184C12.5483 6.10502 12.5483 6.4182 12.3551 6.61136L8.34978 10.6167C8.1566 10.8099 7.84342 10.8099 7.65024 10.6167Z" fill="white" fill-opacity="0.01"/>
<mask id="mask0_1275_13068" style="mask-type:luminance" maskUnits="userSpaceOnUse" x="3" y="5" width="10" height="6">
<path fill-rule="evenodd" clip-rule="evenodd" d="M7.65024 10.6167L3.64488 6.61136C3.45171 6.41818 3.45171 6.105 3.64488 5.91184L4.11204 5.44468C4.30489 5.25184 4.61743 5.25146 4.81073 5.44386L8.00001 8.61819L11.1893 5.44386C11.3826 5.25146 11.6951 5.25184 11.888 5.44468L12.3551 5.91184C12.5483 6.10502 12.5483 6.4182 12.3551 6.61136L8.34978 10.6167C8.1566 10.8099 7.84342 10.8099 7.65024 10.6167Z" fill="white"/>
</mask>
<g mask="url(#mask0_1275_13068)">
<rect width="16" height="16" fill="#7F8FA4"/>
</g>
</svg>
