<svg width="51" height="51" viewBox="0 0 51 51" fill="none" xmlns="http://www.w3.org/2000/svg">
<g clip-path="url(#clip0_1181_13564)">
<path d="M21.1172 22.9102C22.2174 22.9102 23.1094 22.0182 23.1094 20.918C23.1094 19.8177 22.2174 18.9258 21.1172 18.9258C20.0169 18.9258 19.125 19.8177 19.125 20.918C19.125 22.0182 20.0169 22.9102 21.1172 22.9102Z" fill="#FF88CF"/>
<path d="M49.6931 41.1772C49.4742 41.0877 48.1238 40.4722 48.1238 38.9173V35.927C48.1238 31.7214 45.175 28.1528 41.2383 27.2087V25.8984C41.2383 24.7982 40.3464 23.9062 39.2461 23.9062C38.1458 23.9062 37.2539 24.7982 37.2539 25.8984V27.1856C33.2673 28.0929 30.2688 31.6859 30.2688 35.927V38.9173C30.2688 40.4723 28.9184 41.0878 28.6995 41.1772C27.887 41.4482 27.3926 42.1903 27.3926 43.0482C27.3926 44.3196 27.8447 45.7073 28.6021 46.7603C29.6445 48.2096 31.1994 49.0078 32.9806 49.0078H37.2539C37.2539 50.1062 38.1477 51 39.2461 51C40.3445 51 41.2383 50.1062 41.2383 49.0078H45.412C47.1931 49.0078 48.7481 48.2096 49.7904 46.7603C50.5479 45.7073 51 44.3196 51 43.0482C51 42.1903 50.5055 41.4481 49.6931 41.1772ZM45.412 45.0234H32.9805C32.2396 45.0234 31.8395 44.5522 31.6244 44.07C32.9433 43.1001 34.2532 41.4199 34.2532 38.9173V35.927C34.2532 33.2183 36.4537 30.9851 39.1585 30.9488C39.1712 30.9486 39.1837 30.9483 39.1963 30.9479C39.2088 30.9483 39.2214 30.9486 39.234 30.9488C41.9388 30.9852 44.1394 33.2184 44.1394 35.927V38.9173C44.1394 41.42 45.4494 43.1002 46.7682 44.07C46.5529 44.5522 46.153 45.0234 45.412 45.0234Z" fill="#FF88CF"/>
<path d="M21.1172 31.5762C22.2174 31.5762 23.1094 30.6842 23.1094 29.584C23.1094 28.4837 22.2174 27.5918 21.1172 27.5918C20.0169 27.5918 19.125 28.4837 19.125 29.584C19.125 30.6842 20.0169 31.5762 21.1172 31.5762Z" fill="#FF88CF"/>
<path d="M21.1172 40.2422C22.2174 40.2422 23.1094 39.3503 23.1094 38.25C23.1094 37.1497 22.2174 36.2578 21.1172 36.2578C20.0169 36.2578 19.125 37.1497 19.125 38.25C19.125 39.3503 20.0169 40.2422 21.1172 40.2422Z" fill="#FF88CF"/>
<path d="M12.4512 22.9102C13.5514 22.9102 14.4434 22.0182 14.4434 20.918C14.4434 19.8177 13.5514 18.9258 12.4512 18.9258C11.3509 18.9258 10.459 19.8177 10.459 20.918C10.459 22.0182 11.3509 22.9102 12.4512 22.9102Z" fill="#FF88CF"/>
<path d="M12.4512 40.2422C13.5514 40.2422 14.4434 39.3503 14.4434 38.25C14.4434 37.1497 13.5514 36.2578 12.4512 36.2578C11.3509 36.2578 10.459 37.1497 10.459 38.25C10.459 39.3503 11.3509 40.2422 12.4512 40.2422Z" fill="#FF88CF"/>
<path d="M29.7832 22.9102C30.8835 22.9102 31.7754 22.0182 31.7754 20.918C31.7754 19.8177 30.8835 18.9258 29.7832 18.9258C28.6829 18.9258 27.791 19.8177 27.791 20.918C27.791 22.0182 28.6829 22.9102 29.7832 22.9102Z" fill="#FF88CF"/>
<path d="M12.4512 31.5762C13.5514 31.5762 14.4434 30.6842 14.4434 29.584C14.4434 28.4837 13.5514 27.5918 12.4512 27.5918C11.3509 27.5918 10.459 28.4837 10.459 29.584C10.459 30.6842 11.3509 31.5762 12.4512 31.5762Z" fill="#FF88CF"/>
<path d="M43.0312 3.98438H40.4414V1.99219C40.4414 0.891902 39.5495 0 38.4492 0C37.3489 0 36.457 0.891902 36.457 1.99219V3.98438H27.3926V1.99219C27.3926 0.891902 26.5007 0 25.4004 0C24.3001 0 23.4082 0.891902 23.4082 1.99219V3.98438H14.4434V1.99219C14.4434 0.891902 13.5515 0 12.4512 0C11.3509 0 10.459 0.891902 10.459 1.99219V3.98438H7.96875C3.57478 3.98438 0 7.55916 0 11.9531V43.0312C0 47.4252 3.57478 51 7.96875 51H21.0176C22.1179 51 23.0098 50.1081 23.0098 49.0078C23.0098 47.9075 22.1179 47.0156 21.0176 47.0156H7.96875C5.77177 47.0156 3.98438 45.2282 3.98438 43.0312V11.9531C3.98438 9.75614 5.77177 7.96875 7.96875 7.96875H10.459V9.96094C10.459 11.0612 11.3509 11.9531 12.4512 11.9531C13.5515 11.9531 14.4434 11.0612 14.4434 9.96094V7.96875H23.4082V9.96094C23.4082 11.0612 24.3001 11.9531 25.4004 11.9531C26.5007 11.9531 27.3926 11.0612 27.3926 9.96094V7.96875H36.457V9.96094C36.457 11.0612 37.3489 11.9531 38.4492 11.9531C39.5495 11.9531 40.4414 11.0612 40.4414 9.96094V7.96875H43.0312C45.2282 7.96875 47.0156 9.75614 47.0156 11.9531V23.9062C47.0156 25.0065 47.9075 25.8984 49.0078 25.8984C50.1081 25.8984 51 25.0065 51 23.9062V11.9531C51 7.55916 47.4252 3.98438 43.0312 3.98438Z" fill="#FF88CF"/>
</g>
<defs>
<clipPath id="clip0_1181_13564">
<rect width="51" height="51" fill="white"/>
</clipPath>
</defs>
</svg>
