<svg width="24" height="24" viewBox="0 0 24 24" fill="none" xmlns="http://www.w3.org/2000/svg">
<circle cx="12" cy="12" r="12" fill="#5AC3F5"/>
<path fill-rule="evenodd" clip-rule="evenodd" d="M16.8125 11.125H16.1562V9.15625C16.1562 6.86484 14.2914 5 12 5C9.70859 5 7.84375 6.86484 7.84375 9.15625V11.125H7.1875C6.46289 11.125 5.875 11.7129 5.875 12.4375V17.6875C5.875 18.4121 6.46289 19 7.1875 19H16.8125C17.5371 19 18.125 18.4121 18.125 17.6875V12.4375C18.125 11.7129 17.5371 11.125 16.8125 11.125ZM10.0312 11.125V9.15625C10.0312 8.0707 10.9145 7.1875 12 7.1875C13.0855 7.1875 13.9688 8.0707 13.9688 9.15625V11.125H10.0312Z" fill="white" fill-opacity="0.01"/>
<mask id="mask0_1573_13245" style="mask-type:luminance" maskUnits="userSpaceOnUse" x="5" y="5" width="14" height="14">
<path fill-rule="evenodd" clip-rule="evenodd" d="M16.8125 11.125H16.1562V9.15625C16.1562 6.86484 14.2914 5 12 5C9.70859 5 7.84375 6.86484 7.84375 9.15625V11.125H7.1875C6.46289 11.125 5.875 11.7129 5.875 12.4375V17.6875C5.875 18.4121 6.46289 19 7.1875 19H16.8125C17.5371 19 18.125 18.4121 18.125 17.6875V12.4375C18.125 11.7129 17.5371 11.125 16.8125 11.125ZM10.0312 11.125V9.15625C10.0312 8.0707 10.9145 7.1875 12 7.1875C13.0855 7.1875 13.9688 8.0707 13.9688 9.15625V11.125H10.0312Z" fill="white"/>
</mask>
<g mask="url(#mask0_1573_13245)">
<rect x="5" y="5" width="14" height="14" fill="#333333"/>
</g>
</svg>
