<svg width="24" height="24" viewBox="0 0 24 24" fill="none" xmlns="http://www.w3.org/2000/svg">
<circle cx="12" cy="12" r="12" fill="#FE6720"/>
<path fill-rule="evenodd" clip-rule="evenodd" d="M14.1389 17.2228L18.8056 12.5561C19.0639 12.295 19.0639 11.8728 18.8056 11.6117L14.1389 6.94504C13.7194 6.52837 13 6.82281 13 7.41726V10.0839H9.22222C8.85278 10.0839 8.55556 10.3811 8.55556 10.7506V13.4173C8.55556 13.7867 8.85278 14.0839 9.22222 14.0839H13V16.7506C13 17.3478 13.7222 17.6395 14.1389 17.2228ZM10.3333 15.9729V17.084C10.3333 17.2673 10.1833 17.4173 10 17.4173H7.66667C6.19444 17.4173 5 16.2229 5 14.7507V9.41734C5 7.94512 6.19444 6.75068 7.66667 6.75068H10C10.1833 6.75068 10.3333 6.90068 10.3333 7.08401V8.19512C10.3333 8.37845 10.1833 8.52845 10 8.52845H7.66667C7.175 8.52845 6.77778 8.92568 6.77778 9.41734V14.7507C6.77778 15.2423 7.175 15.6396 7.66667 15.6396H10C10.1833 15.6396 10.3333 15.7896 10.3333 15.9729Z" fill="white" fill-opacity="0.01"/>
<mask id="mask0_1573_13258" style="mask-type:luminance" maskUnits="userSpaceOnUse" x="5" y="6" width="14" height="12">
<path fill-rule="evenodd" clip-rule="evenodd" d="M14.1389 17.2228L18.8056 12.5561C19.0639 12.295 19.0639 11.8728 18.8056 11.6117L14.1389 6.94504C13.7194 6.52837 13 6.82281 13 7.41726V10.0839H9.22222C8.85278 10.0839 8.55556 10.3811 8.55556 10.7506V13.4173C8.55556 13.7867 8.85278 14.0839 9.22222 14.0839H13V16.7506C13 17.3478 13.7222 17.6395 14.1389 17.2228ZM10.3333 15.9729V17.084C10.3333 17.2673 10.1833 17.4173 10 17.4173H7.66667C6.19444 17.4173 5 16.2229 5 14.7507V9.41734C5 7.94512 6.19444 6.75068 7.66667 6.75068H10C10.1833 6.75068 10.3333 6.90068 10.3333 7.08401V8.19512C10.3333 8.37845 10.1833 8.52845 10 8.52845H7.66667C7.175 8.52845 6.77778 8.92568 6.77778 9.41734V14.7507C6.77778 15.2423 7.175 15.6396 7.66667 15.6396H10C10.1833 15.6396 10.3333 15.7896 10.3333 15.9729Z" fill="white"/>
</mask>
<g mask="url(#mask0_1573_13258)">
<rect x="5" y="5" width="14" height="14" fill="#333333"/>
</g>
</svg>
