<svg width="61" height="42" viewBox="0 0 61 42" fill="none" xmlns="http://www.w3.org/2000/svg">
<path d="M54.7556 1.13168H14.1111C11.0699 1.13168 8.63897 4.0116 8.63897 7.45829V9.74538C8.63897 10.6763 9.29988 11.4978 10.1778 11.4978C11.0557 11.4978 11.7166 10.6763 11.7166 9.74538V7.45829C11.7166 7.30957 11.7338 7.15956 11.76 7.00455L25.9819 21.1808L11.76 35.3571C11.7338 35.2021 11.7166 35.0521 11.7166 34.9034V32.6163C11.7166 31.6854 11.0557 30.8639 10.1778 30.8639C9.29988 30.8639 8.63897 31.6854 8.63897 32.6163V34.9034C8.63897 38.3501 11.0699 41.23 14.1111 41.23H54.7556C57.7968 41.23 60.2277 38.3501 60.2277 34.9034V7.45829C60.2277 4.0116 57.7968 1.13168 54.7556 1.13168ZM33.7362 24.2159L14.0617 4.63658C14.0778 4.63654 14.0942 4.63653 14.1111 4.63653H54.7556C54.7724 4.63653 54.7889 4.63654 54.805 4.63658L35.1304 24.2159C34.906 24.4097 34.6649 24.4981 34.4333 24.4981C34.2018 24.4981 33.9607 24.4097 33.7362 24.2159ZM14.1111 37.7252C14.094 37.7252 14.0773 37.7252 14.061 37.7251L28.3355 23.4858L31.7129 26.9043C32.4752 27.7093 33.4514 28.1173 34.4333 28.1173C35.4152 28.1173 36.3914 27.7093 37.1537 26.9044C37.1543 26.9038 37.1549 26.9032 37.1554 26.9026L40.5312 23.4858L54.8057 37.7251C54.7894 37.7252 54.7727 37.7252 54.7556 37.7252H14.1111ZM57.1501 34.9034C57.1501 35.0521 57.1329 35.2021 57.1066 35.3571L42.8848 21.1808L57.1066 7.00455C57.1329 7.15956 57.1501 7.30957 57.1501 7.45829V34.9034ZM6.24444 15.6166C5.36654 15.6166 4.70564 16.4381 4.70564 17.369C4.70564 18.2999 5.36654 19.1215 6.24444 19.1215H14.1111C14.989 19.1215 15.6499 18.2999 15.6499 17.369C15.6499 16.4381 14.989 15.6166 14.1111 15.6166H6.24444ZM2.31111 26.7451H14.1111C14.989 26.7451 15.6499 25.9236 15.6499 24.9927C15.6499 24.0618 14.989 23.2402 14.1111 23.2402H2.31111C1.43321 23.2402 0.772302 24.0618 0.772302 24.9927C0.772302 25.9236 1.43321 26.7451 2.31111 26.7451Z" fill="#FF88CF" stroke="#FF88CF" stroke-width="0.455395"/>
</svg>
