<svg width="24" height="24" viewBox="0 0 24 24" fill="none" xmlns="http://www.w3.org/2000/svg">
<circle cx="12" cy="12" r="12" fill="#22BB9B"/>
<path fill-rule="evenodd" clip-rule="evenodd" d="M19 9.08333V7.91667C19 7.27257 18.4774 6.75 17.8333 6.75H6.16667C5.52257 6.75 5 7.27257 5 7.91667V9.08333H19ZM6.16667 17.6389C5.52257 17.6389 5 17.1163 5 16.4722V12.1944H19V16.4722C19 17.1163 18.4774 17.6389 17.8333 17.6389H6.16667ZM9.95833 14.5278C9.79792 14.5278 9.66667 14.659 9.66667 14.8194V15.7917C9.66667 15.9521 9.79792 16.0833 9.95833 16.0833H13.2639C13.4243 16.0833 13.5556 15.9521 13.5556 15.7917V14.8194C13.5556 14.659 13.4243 14.5278 13.2639 14.5278H9.95833ZM6.55556 14.8194C6.55556 14.659 6.68681 14.5278 6.84722 14.5278H8.59722C8.75764 14.5278 8.88889 14.659 8.88889 14.8194V15.7917C8.88889 15.9521 8.75764 16.0833 8.59722 16.0833H6.84722C6.68681 16.0833 6.55556 15.9521 6.55556 15.7917V14.8194Z" fill="white" fill-opacity="0.01"/>
<mask id="mask0_1573_13252" style="mask-type:luminance" maskUnits="userSpaceOnUse" x="5" y="6" width="14" height="12">
<path fill-rule="evenodd" clip-rule="evenodd" d="M19 9.08333V7.91667C19 7.27257 18.4774 6.75 17.8333 6.75H6.16667C5.52257 6.75 5 7.27257 5 7.91667V9.08333H19ZM6.16667 17.6389C5.52257 17.6389 5 17.1163 5 16.4722V12.1944H19V16.4722C19 17.1163 18.4774 17.6389 17.8333 17.6389H6.16667ZM9.95833 14.5278C9.79792 14.5278 9.66667 14.659 9.66667 14.8194V15.7917C9.66667 15.9521 9.79792 16.0833 9.95833 16.0833H13.2639C13.4243 16.0833 13.5556 15.9521 13.5556 15.7917V14.8194C13.5556 14.659 13.4243 14.5278 13.2639 14.5278H9.95833ZM6.55556 14.8194C6.55556 14.659 6.68681 14.5278 6.84722 14.5278H8.59722C8.75764 14.5278 8.88889 14.659 8.88889 14.8194V15.7917C8.88889 15.9521 8.75764 16.0833 8.59722 16.0833H6.84722C6.68681 16.0833 6.55556 15.9521 6.55556 15.7917V14.8194Z" fill="white"/>
</mask>
<g mask="url(#mask0_1573_13252)">
<rect x="5" y="5" width="14" height="14" fill="#333333"/>
</g>
</svg>
