<svg width="24" height="24" viewBox="0 0 24 24" fill="none" xmlns="http://www.w3.org/2000/svg">
<circle cx="12" cy="12" r="12" fill="#CF80F3"/>
<path fill-rule="evenodd" clip-rule="evenodd" d="M12 5C8.13306 5 5 8.13306 5 12C5 15.8669 8.13306 19 12 19C15.8669 19 19 15.8669 19 12C19 8.13306 15.8669 5 12 5ZM12 7.70968C13.3718 7.70968 14.4839 8.82177 14.4839 10.1935C14.4839 11.5653 13.3718 12.6774 12 12.6774C10.6282 12.6774 9.51613 11.5653 9.51613 10.1935C9.51613 8.82177 10.6282 7.70968 12 7.70968ZM7.86492 15.4944C8.85847 16.6685 10.3431 17.4194 12 17.4194C13.6569 17.4194 15.1415 16.6685 16.1351 15.4944C15.6044 14.4952 14.5657 13.8065 13.3548 13.8065C13.2871 13.8065 13.2194 13.8177 13.1544 13.8375C12.7903 13.956 12.4036 14.0323 12 14.0323C11.5964 14.0323 11.2125 13.956 10.8456 13.8375C10.7806 13.8177 10.7129 13.8065 10.6452 13.8065C9.43427 13.8065 8.39556 14.4952 7.86492 15.4944Z" fill="white" fill-opacity="0.01"/>
<mask id="mask0_1573_13239" style="mask-type:luminance" maskUnits="userSpaceOnUse" x="5" y="5" width="14" height="14">
<path fill-rule="evenodd" clip-rule="evenodd" d="M12 5C8.13306 5 5 8.13306 5 12C5 15.8669 8.13306 19 12 19C15.8669 19 19 15.8669 19 12C19 8.13306 15.8669 5 12 5ZM12 7.70968C13.3718 7.70968 14.4839 8.82177 14.4839 10.1935C14.4839 11.5653 13.3718 12.6774 12 12.6774C10.6282 12.6774 9.51613 11.5653 9.51613 10.1935C9.51613 8.82177 10.6282 7.70968 12 7.70968ZM7.86492 15.4944C8.85847 16.6685 10.3431 17.4194 12 17.4194C13.6569 17.4194 15.1415 16.6685 16.1351 15.4944C15.6044 14.4952 14.5657 13.8065 13.3548 13.8065C13.2871 13.8065 13.2194 13.8177 13.1544 13.8375C12.7903 13.956 12.4036 14.0323 12 14.0323C11.5964 14.0323 11.2125 13.956 10.8456 13.8375C10.7806 13.8177 10.7129 13.8065 10.6452 13.8065C9.43427 13.8065 8.39556 14.4952 7.86492 15.4944Z" fill="white"/>
</mask>
<g mask="url(#mask0_1573_13239)">
<rect x="5" y="5" width="14" height="14" fill="#333333"/>
</g>
</svg>
